<svg xmlns="http://www.w3.org/2000/svg" width="18" height="18" viewBox="0 0 18 18">
    <g fill="none" fill-rule="evenodd">
        <g>
            <g transform="translate(-952 -5) translate(952 5)">
                <circle cx="9" cy="9" r="9" fill="#A5A2CF"/>
                <path fill="#FFF" fill-rule="nonzero" d="M5.803 14.173c.216 0 .362-.045.438-.135.075-.09.113-.24.113-.448v-3.424c.014.03.029.056.043.081.015.026.036.049.065.07.144.195.295.308.454.34.158.033.31-.026.453-.177.159-.166.236-.32.232-.465-.003-.144-.095-.313-.275-.507l-.421-.47c-.151-.17-.317-.348-.497-.535.137-.223.266-.452.389-.686.122-.234.245-.48.367-.74.08-.18.126-.352.14-.518.015-.165-.009-.308-.07-.426-.061-.12-.158-.215-.291-.287-.134-.072-.308-.108-.524-.108h-.097c.086-.079.136-.183.15-.313.015-.13-.017-.255-.096-.378l-.227-.356-.173-.265c-.05-.075-.097-.144-.14-.205-.044-.061-.09-.128-.14-.2-.102-.137-.23-.214-.384-.232-.155-.018-.297.023-.427.124-.108.087-.174.19-.2.308-.025.119.013.243.114.373.108.158.212.313.313.464.1.151.202.32.302.508.044.072.09.13.14.172H4.508c-.374 0-.561.198-.561.594 0 .21.041.362.124.46.083.097.228.145.437.145H5.76c.18 0 .223.087.13.26-.202.41-.436.811-.702 1.204-.267.392-.616.783-1.048 1.171-.202.188-.311.344-.33.47-.017.126.024.265.125.416.223.374.529.374.918 0 .072-.065.14-.131.205-.2.065-.068.126-.138.184-.21v3.542c0 .23.05.385.15.464.102.08.238.12.411.12zm7.539-8.834c.223 0 .376-.045.459-.135.082-.09.124-.236.124-.438 0-.194-.042-.334-.124-.42-.083-.087-.236-.13-.46-.13H8.429c-.224 0-.377.043-.46.13-.082.086-.124.226-.124.42 0 .202.042.348.125.438.082.09.235.135.459.135h4.914zM12.37 8.46c.367 0 .635-.068.804-.205.17-.137.254-.41.254-.821v-.67c0-.201-.022-.367-.065-.496-.043-.13-.108-.229-.194-.297-.087-.069-.196-.116-.33-.14-.133-.026-.29-.039-.47-.039H9.368c-.367 0-.633.065-.799.195-.166.13-.248.4-.248.81v.637c0 .41.082.684.248.82.166.138.432.206.8.206h3.002zm-.27-1.08H9.637c-.093 0-.14-.043-.14-.13v-.345c0-.101.047-.151.14-.151h2.42c.064 0 .113.007.145.021.033.015.049.058.049.13v.367c0 .072-.05.108-.151.108zm.766 6.588c.39 0 .652-.086.789-.26.137-.172.205-.46.205-.863V10.09c0-.396-.068-.682-.205-.859-.137-.176-.4-.264-.789-.264H8.903c-.382 0-.646.088-.794.264-.148.177-.221.463-.221.859v2.754c0 .41.073.7.221.87.148.168.412.253.794.253h3.963zm-.108-3.024H11.43v-.896h1.188c.043 0 .077.007.103.021.025.015.037.061.037.14v.735zm-2.419 0H9.043v-.734c0-.08.015-.126.043-.14.03-.015.072-.022.13-.022h1.123v.896zm2.29 1.955H11.43v-.897h1.328v.746c0 .1-.043.15-.13.15zm-2.29 0H9.216c-.08 0-.128-.011-.146-.033-.018-.021-.027-.068-.027-.14v-.724h1.296v.897z"/>
            </g>
        </g>
    </g>
</svg>
