<svg xmlns="http://www.w3.org/2000/svg" width="18" height="18" viewBox="0 0 18 18">
    <g fill="none" fill-rule="evenodd">
        <g>
            <g transform="translate(-841 -5) translate(841 5)">
                <circle cx="9" cy="9" r="9" fill="#F19242"/>
                <g fill="#FFF" fill-rule="nonzero">
                    <path d="M2.908 3.804c.124.123.324.123.448 0L6.04 1.119c.123-.124.123-.324 0-.448L5.462.093c-.123-.124-.324-.124-.447 0L2.33 2.777c-.123.124-.124.324 0 .448l.578.579zM7.252 7.7l2.685-2.685c.124-.124.123-.324 0-.448l-.579-.578c-.123-.124-.324-.124-.447 0L6.226 6.673c-.123.124-.123.324 0 .448l.579.579c.123.123.324.123.447 0zM8.51 3.497c-.336-.102-.85-.313-1.258-.72-.404-.404-.616-.92-.72-1.259-.035.041-2.742 2.748-2.776 2.777.459.14.92.38 1.259.72.34.339.578.794.72 1.258.035-.04 2.742-2.746 2.775-2.776zM3.733 4.954l-3.64 3.64c-.124.124-.124.324 0 .448l.895.895c.123.123.324.123.447 0l3.64-3.64c-.124-.336-.3-.628-.507-.834-.208-.209-.5-.386-.835-.509zM9.85 8.902H7.32c-.524 0-.95.425-.95.949v.633c0 .174.142.316.317.316h3.797c.174 0 .316-.142.316-.316V9.85c0-.524-.426-.95-.95-.95z" transform="translate(3.6 3.6)"/>
                </g>
            </g>
        </g>
    </g>
</svg>
