<svg xmlns="http://www.w3.org/2000/svg" width="18" height="18" viewBox="0 0 18 18">
    <g fill="none" fill-rule="evenodd">
        <g fill-rule="nonzero">
            <g>
                <path fill="#0D6DB7" d="M0 8.985C0 4.022 4.023 0 8.985 0s8.985 4.022 8.985 8.985c0 4.962-4.023 8.984-8.985 8.984S0 13.947 0 8.985z" transform="translate(-1176 -5) translate(1176 5)"/>
                <g fill="#FFF" transform="translate(-1176 -5) translate(1176 5) translate(2.88 3.6)">
                    <path d="M12.036 2.932L6.277.047c-.1-.05-.22-.05-.32 0L.196 2.932c-.263.131-.263.508 0 .64l5.76 2.885c.1.05.22.05.32 0l1.656-.83v-.362l-2.351-1.33c-.172-.098-.233-.317-.136-.49.098-.171.317-.232.489-.135l2.533 1.434c.112.064.182.183.182.312v.212l3.386-1.696c.263-.131.264-.508 0-.64z"/>
                    <path d="M7.933 7.212V6.43l-1.335.669c-.297.149-.655.154-.963 0l-3.46-1.734v1.938c0 .065.017.128.05.184.859 1.44 3.498 1.709 5.2 1.416-.468-.59-.198-1.458.508-1.69zM8.65 7.23c.39.148.671.517.691.954.275-.193.504-.424.668-.698.033-.056.05-.12.05-.184V5.364l-1.41.706v1.16zM9 9.02c-.413.385-1.051.386-1.465 0l-.552 1.27c-.103.235.07.5.329.5h1.911c.258 0 .432-.264.329-.5L9 9.02z"/>
                    <circle cx="8.267" cy="8.234" r="1"/>
                </g>
            </g>
        </g>
    </g>
</svg>
