<svg xmlns="http://www.w3.org/2000/svg" width="18" height="18" viewBox="0 0 18 18">
    <g fill="none" fill-rule="evenodd">
        <g>
            <g transform="translate(-738 -5) translate(738 5)">
                <circle cx="9" cy="9" r="9" fill="#F9C601"/>
                <path fill="#FFF" fill-rule="nonzero" d="M4.457 8.186l.072-.001c.173-.018.381-.1.626-.243.346-.21.666-.414.961-.616.296-.202.573-.41.832-.626.173.122.351.25.535.383.183.133.369.275.556.427.18.15.349.232.507.243.159.01.288-.049.39-.179.122-.15.165-.307.129-.47-.036-.161-.126-.304-.27-.426-.151-.122-.315-.252-.492-.389-.176-.137-.358-.266-.545-.389.108-.13.218-.266.33-.41.111-.144.22-.299.329-.464.173-.274.25-.492.232-.654-.018-.162-.131-.293-.34-.394-.144-.065-.283-.074-.416-.027s-.268.185-.405.416c-.08.151-.173.304-.28.459-.109.155-.231.308-.368.459-.202-.123-.412-.249-.632-.378-.22-.13-.455-.267-.707-.41-.223-.123-.42-.168-.589-.136-.169.033-.293.135-.372.308-.08.173-.094.322-.044.448s.195.258.432.395c.188.108.375.207.562.297.187.09.36.185.518.286-.244.194-.507.378-.788.55-.28.173-.53.31-.745.411-.252.122-.405.25-.46.383-.053.134-.019.305.103.513.101.173.238.25.41.233l-.071.001zm4.592 6.03c.19.008.394-.05.61-.172.367-.21.696-.416.988-.621.292-.206.56-.423.805-.654.252.26.514.495.788.708.274.212.547.39.82.534.231.115.417.164.557.146.14-.018.261-.106.362-.265.115-.18.15-.354.102-.523-.046-.17-.2-.326-.459-.47-.252-.144-.491-.299-.718-.465-.227-.165-.44-.342-.642-.529.208-.273.394-.558.556-.853.162-.295.308-.608.437-.94.209-.54.245-.972.108-1.296-.137-.324-.464-.486-.983-.486h-2.365c.015-.014.027-.025.038-.032.01-.007.023-.018.038-.032.173-.173.318-.333.437-.481.119-.148.216-.313.292-.497.075-.183.131-.403.167-.659.036-.255.054-.577.054-.966 0-.08.047-.119.14-.119h.54c.058 0 .087.029.087.086v1.383c0 .432.086.752.26.961.172.209.474.324.906.346.216.007.425.007.627 0 .209-.015.358-.06.448-.135.09-.076.135-.233.135-.47 0-.23-.056-.389-.167-.475-.112-.087-.265-.13-.46-.13-.129 0-.233-.005-.313-.016-.079-.011-.138-.038-.178-.081-.04-.043-.065-.108-.075-.195-.011-.086-.017-.205-.017-.356V5.436c0-.216-.014-.396-.043-.54-.029-.144-.083-.256-.162-.335-.079-.079-.185-.135-.318-.167-.134-.033-.301-.049-.503-.049h-1.144c-.353 0-.602.096-.746.286-.144.191-.216.513-.216.967 0 .324-.005.576-.016.756-.01.18-.034.328-.07.443-.036.115-.094.218-.173.308-.079.09-.183.203-.313.34-.209.18-.308.342-.297.486.01.144.099.288.265.432.021.021.041.04.059.054.018.014.038.029.06.043-.065.05-.118.113-.157.189-.04.076-.06.175-.06.297 0 .202.058.347.173.437.115.09.256.143.421.157-.072.151-.064.342.022.572.108.31.241.614.4.913.158.299.338.585.54.859-.23.208-.472.403-.724.583-.252.18-.515.335-.788.464-.245.115-.416.268-.513.46-.098.19-.117.35-.06.48.101.223.247.338.438.345zm-2.35-.054c.109 0 .199-.01.27-.032.073-.022.13-.068.173-.14.044-.072.072-.177.087-.314.014-.136.021-.316.021-.54v-3.088h1.156c.209 0 .356-.035.443-.103.086-.068.13-.221.13-.459 0-.187-.026-.32-.076-.4-.05-.079-.13-.126-.238-.14.072-.08.114-.164.124-.254.011-.09-.016-.189-.08-.297-.03-.05-.058-.097-.087-.14-.029-.043-.063-.088-.103-.135-.04-.047-.088-.101-.145-.162-.058-.061-.126-.139-.206-.232-.1-.116-.22-.17-.356-.162-.137.007-.252.072-.346.194-.072.1-.099.19-.08.27.017.08.066.17.145.27.08.08.153.164.222.254.068.09.145.196.232.318.014.03.025.047.032.054H7.25V7.91c0-.216-.05-.367-.15-.453-.102-.087-.242-.13-.422-.13-.202 0-.346.04-.432.119-.086.079-.13.234-.13.464v1.015h-1.48c-.222 0-.377.031-.464.092-.086.061-.13.218-.13.47 0 .238.048.39.141.459.094.068.249.103.465.103h1.468v3.024c0 .23.006.415.017.556.01.14.034.25.07.33.036.078.093.132.173.161.079.029.187.043.324.043zm4.785-3.164c-.26-.382-.468-.792-.626-1.231-.015-.05-.033-.094-.054-.13-.022-.036-.04-.068-.054-.097h1.179c.103.004.163.035.181.092.022.068-.003.196-.075.383-.058.166-.133.33-.227.492-.094.162-.202.325-.324.491zm-3.056 2.009c.302.007.518-.038.648-.135s.194-.214.194-.351c0-.187-.032-.319-.097-.394-.065-.076-.23-.114-.497-.114-.094 0-.151-.012-.173-.038-.021-.025-.032-.11-.032-.253v-1.08c0-.137-.049-.25-.146-.34-.097-.09-.218-.136-.362-.136-.13 0-.237.044-.324.13-.086.086-.13.202-.13.346V12.1c0 .18.015.327.044.442.029.116.077.207.146.276.068.068.162.117.28.146.12.028.269.043.449.043zm-3.986.815c.159.04.324-.002.497-.124.137-.1.261-.229.373-.383.111-.155.203-.351.275-.589.072-.238.128-.524.168-.859.04-.334.059-.729.059-1.182 0-.173-.047-.3-.14-.384-.094-.082-.21-.124-.346-.124-.151 0-.272.038-.362.114-.09.075-.135.217-.135.426 0 .367-.01.675-.032.924-.022.248-.054.453-.097.615-.044.162-.098.288-.162.378-.065.09-.14.168-.227.232-.166.13-.254.265-.265.405-.01.14.013.254.07.34.058.101.166.172.324.211z"/>
            </g>
        </g>
    </g>
</svg>
