<svg xmlns="http://www.w3.org/2000/svg" width="18" height="18" viewBox="0 0 18 18">
    <g fill="none" fill-rule="evenodd">
        <g fill-rule="nonzero">
            <g>
                <path fill="#EE92BB" d="M0 8.985C0 4.022 4.023 0 8.985 0s8.985 4.022 8.985 8.985c0 4.962-4.023 8.984-8.985 8.984S0 13.947 0 8.985z" transform="translate(-1322 -5) translate(1322 5)"/>
                <g fill="#FFF" transform="translate(-1322 -5) translate(1322 5) translate(3.6 3.6)">
                    <circle cx="3.826" cy="4.058" r="1"/>
                    <circle cx="6.51" cy="6.742" r="1"/>
                    <path d="M9.804 5.4l.5-1.47c.045-.132-.003-.279-.118-.36L8.92 2.675l-.46-1.482C8.417 1.06 8.292.97 8.153.971L6.6.99 5.357.062c-.112-.084-.266-.084-.378 0L3.735.99 2.184.97c-.14-.001-.265.09-.307.223l-.46 1.482L.15 3.57c-.114.081-.162.228-.117.36l.5 1.47-.5 1.47c-.045.132.003.279.117.36l1.268.895.46 1.482c.042.133.167.224.306.222l1.552-.02 1.244.928c.056.042.122.063.189.063.066 0 .133-.02.19-.063L6.6 9.81l1.551.02c.14.001.265-.09.307-.223l.46-1.482 1.267-.895c.115-.081.163-.228.118-.36l-.5-1.47zM2.876 4.058c0-.524.426-.95.95-.95.523 0 .949.426.949.95 0 .523-.426.949-.95.949-.523 0-.949-.426-.949-.95zm.875 3.206c-.062.062-.143.093-.224.093-.08 0-.162-.03-.223-.093-.124-.123-.124-.323 0-.447l3.281-3.281c.124-.124.324-.124.447 0 .124.123.124.323 0 .447L3.751 7.264zm2.76.428c-.524 0-.95-.426-.95-.95 0-.523.426-.949.95-.949.523 0 .949.426.949.95 0 .523-.426.949-.95.949z"/>
                </g>
            </g>
        </g>
    </g>
</svg>
